<svg xmlns="http://www.w3.org/2000/svg" width="209.625" height="180" viewBox="0 0 209.625 180">
  <g id="グループ_227" data-name="グループ 227" transform="translate(-445.238 -546.414)">
    <path id="パス_2169" data-name="パス 2169" d="M489.054,657.381c-.527.029-1.047.074-1.56.074a26.512,26.512,0,0,1-23.764-38.339,54.322,54.322,0,0,1,.683-7.84,9.251,9.251,0,0,0-18.218-3.229c-.2,1.113-4.707,27.335,7.758,45.013a36.344,36.344,0,0,0,23.491,14.789c4.335,15.591,9.384,37.663,8.537,51.168a16.4,16.4,0,0,0,.371,4.6h32.5a15.675,15.675,0,0,0,.364-2.524c1.455-23.393-8.2-57.849-12.533-71.9A26.486,26.486,0,0,1,489.054,657.381Z" transform="translate(0 2.795)" fill="#968767"/>
    <path id="パス_2170" data-name="パス 2170" d="M465.446,630.432a21.052,21.052,0,0,0,19.317,20.922c.556.037,1.121.081,1.685.081a20.945,20.945,0,0,0,17.164-8.961,20.61,20.61,0,0,0,3.281-7.364,20.983,20.983,0,0,0,.543-4.677,20.671,20.671,0,0,0-1.121-6.7,20.983,20.983,0,0,0-40.87,6.7Z" transform="translate(1.046 3.262)" fill="#968767"/>
    <path id="パス_2171" data-name="パス 2171" d="M577.384,639.984c0,.052-.007.1-.007.148a26.2,26.2,0,0,1-1.834,9.5c-.007.007-.007.022-.015.045a20.94,20.94,0,0,0,25.472,1,21.329,21.329,0,0,0,2.672-2.235,20.291,20.291,0,0,0,1.99-2.294,20.871,20.871,0,0,0,4.269-12.637,21.5,21.5,0,0,0-.357-3.756,20.958,20.958,0,0,0-38.613-7.046A26.437,26.437,0,0,1,577.384,639.984Z" transform="translate(6.506 3.42)" fill="#968767"/>
    <path id="パス_2172" data-name="パス 2172" d="M651.088,588.161,626.32,566.415a1.973,1.973,0,0,0-2.784.186L610.507,581.45a1.957,1.957,0,0,0,.178,2.776l1.856,1.642a15.348,15.348,0,0,0-3.683,5.323,9.237,9.237,0,0,0-4.521,15.784,27.715,27.715,0,0,1,7.128,10.58,26.557,26.557,0,0,1-5.085,40.863,26.832,26.832,0,0,1-5.279,2.546,26.312,26.312,0,0,1-8.761,1.507c-.52,0-1.039-.052-1.544-.075a26.364,26.364,0,0,1-13.854-4.884c-.2-.148-.393-.3-.586-.446a26.681,26.681,0,0,1-13.327,10.349,25.721,25.721,0,0,1-3.1.9,26.647,26.647,0,0,1-31.24-18.783c-12-15.115-2.213-44.664-2.094-45.013.037-.126.044-.26.089-.386a30.818,30.818,0,0,0,7.083,3.735l1.611,5.761a1.973,1.973,0,0,0,1.893,1.433,2.206,2.206,0,0,0,.534-.067l19.036-5.323a1.975,1.975,0,0,0,1.187-.928,1.942,1.942,0,0,0,.171-1.492l-8.873-31.754a1.966,1.966,0,0,0-2.428-1.366l-19.028,5.324a1.939,1.939,0,0,0-1.359,2.42l.662,2.383c-2.1.408-6.415,1.611-8.159,4.878a6.309,6.309,0,0,0-.69,3.2,9.226,9.226,0,0,0-9.236,6.192,92.732,92.732,0,0,0-4.039,17.521,26.4,26.4,0,0,1,1.8,30.736c3.036,9.956,9.035,18.827,19.525,24.425-5.82,20.535-6.949,41.345-6.956,54.2h33.32c.008-10.869.914-28.895,5.836-45.763,1.983-.171,3.519-.935,6.043-2.19,2.153-1.062,5.389-2.673,9.325-4.254a23.651,23.651,0,0,1,5.278,3.675c1.545,14.418,3.259,33.535,3.393,48.532h33.3c-.149-15.888-1.79-35.139-3.364-50.061a8.872,8.872,0,0,0,2.673-2.361c11-14.462,25.041-45.584,9.48-70.2a30.754,30.754,0,0,0,6.274-.75l4.484,3.942a1.921,1.921,0,0,0,1.307.483,1.979,1.979,0,0,0,1.478-.669l13.029-14.855a1.927,1.927,0,0,0,.49-1.418A1.984,1.984,0,0,0,651.088,588.161ZM522.5,590.982c.929-1.76,4.143-2.636,5.74-2.91l4.165,14.9a25.954,25.954,0,0,1-5.619-3.808,17.557,17.557,0,0,1-3.883-4.893,6.184,6.184,0,0,1-.32-.683A2.815,2.815,0,0,1,522.5,590.982Zm16.149,19.681L530.83,582.7l15.241-4.253,7.819,27.959ZM579.161,676.8l.052-.031a.4.4,0,0,0,.007.089Zm42.681-78.051a18.425,18.425,0,0,1-7.409-2.169c-2-1.113-2.1-2.182-2.131-2.524a4.74,4.74,0,0,1,.824-2.695,14.337,14.337,0,0,1,2.391-2.888l11.635,10.208A28.093,28.093,0,0,1,621.843,598.748Zm-7.082-16.185L625.2,570.669l21.82,19.14L636.58,601.717Z" transform="translate(3.096 1.01)" fill="#968767"/>
    <rect id="長方形_414" data-name="長方形 414" width="7.404" height="7.406" transform="translate(499.544 573.946) rotate(-18.76)" fill="#968767"/>
    <path id="パス_2173" data-name="パス 2173" d="M585.727,593.011l-6.377-3.756-3.757,6.37,6.362,3.757Z" transform="translate(6.746 2.217)" fill="#968767"/>
    <rect id="長方形_415" data-name="長方形 415" width="7.406" height="7.401" transform="matrix(0.73, -0.684, 0.684, 0.73, 469.229, 602.528)" fill="#968767"/>
    <path id="パス_2174" data-name="パス 2174" d="M602.484,574.794l-7.068-2.205-2.2,7.068,7.053,2.2Z" transform="translate(7.658 1.355)" fill="#968767"/>
    <rect id="長方形_416" data-name="長方形 416" width="7.4" height="7.405" transform="translate(568.721 579.18) rotate(-72.62)" fill="#968767"/>
    <rect id="長方形_417" data-name="長方形 417" width="7.395" height="7.406" transform="translate(462.512 577.522) rotate(-0.63)" fill="#968767"/>
    <path id="パス_2175" data-name="パス 2175" d="M488.64,565.727a2.862,2.862,0,1,0-2.851-2.858A2.85,2.85,0,0,0,488.64,565.727Z" transform="translate(2.099 0.703)" fill="#968767"/>
    <path id="パス_2176" data-name="パス 2176" d="M569.337,607.092a2.855,2.855,0,1,0-2.859,2.866A2.85,2.85,0,0,0,569.337,607.092Z" transform="translate(6.127 2.992)" fill="#968767"/>
    <path id="パス_2177" data-name="パス 2177" d="M593.339,609.71a2.874,2.874,0,0,0,2.285-1.151,2.917,2.917,0,0,0,.58-1.708,2.865,2.865,0,0,0-5.731,0,2.7,2.7,0,0,0,.1.691A2.856,2.856,0,0,0,593.339,609.71Z" transform="translate(7.516 2.98)" fill="#968767"/>
    <path id="パス_2178" data-name="パス 2178" d="M599.84,565.487a2.866,2.866,0,1,0-2.866-2.865A2.871,2.871,0,0,0,599.84,565.487Z" transform="translate(7.853 0.69)" fill="#968767"/>
    <path id="パス_2179" data-name="パス 2179" d="M627.023,552.139a2.862,2.862,0,1,0-2.858-2.866A2.861,2.861,0,0,0,627.023,552.139Z" transform="translate(9.26)" fill="#968767"/>
    <path id="パス_2180" data-name="パス 2180" d="M531.863,639.665a21.007,21.007,0,0,0,5.791,14.425,19.922,19.922,0,0,0,4.58,3.645,21.116,21.116,0,0,0,10.624,2.925,20.87,20.87,0,0,0,11.88-3.7,21.472,21.472,0,0,0,5.374-5.338c.252-.379.483-.766.713-1.151.134-.208.274-.416.386-.631a21.075,21.075,0,0,0,1.01-2.042,21.549,21.549,0,0,0,1.054-3.311,20.714,20.714,0,0,0-2.739-16.111,20.138,20.138,0,0,0-2.109-2.747,19.426,19.426,0,0,0-2.168-2.108,20.982,20.982,0,0,0-34.4,16.147Z" transform="translate(4.483 3.739)" fill="#968767"/>
  </g>
</svg>
